<svg xmlns="http://www.w3.org/2000/svg" width="30" height="31" fill="none" viewBox="0 0 30 31">
    <path fill="#9B99AF" d="M29.486 6.2c-.273-2.559-2.293-4.58-4.852-4.853-6.416-.685-12.852-.685-19.268 0C2.807 1.62.786 3.641.514 6.2c-.685 6.417-.685 12.852 0 19.268.273 2.559 2.293 4.58 4.852 4.853 6.416.685 12.852.685 19.268 0 2.559-.273 4.58-2.294 4.852-4.853.685-6.416.685-12.851 0-19.268z"/>
    <path fill="#9B99AF" d="M27.853 7.284c-.242-2.27-2.035-4.064-4.306-4.306-5.693-.608-11.404-.608-17.097 0-2.27.242-4.064 2.035-4.306 4.306-.608 5.693-.608 11.404 0 17.097.242 2.27 2.035 4.064 4.306 4.306 5.693.608 11.404.608 17.097 0 2.27-.242 4.064-2.035 4.306-4.306.608-5.693.608-11.404 0-17.097z"/>
    <path fill="#9B99AF" d="M.45 24.845c.02.207.042.415.064.622.273 2.558 2.294 4.579 4.853 4.852 6.416.685 12.851.685 19.267 0 2.56-.273 4.58-2.294 4.853-4.852l.064-.622H.45z"/>
    <path fill="#9B99AF" d="M29.486 25.467c.368-3.448.538-6.901.51-10.354L23.14 8.256c-.856-.978-2.108-1.588-3.578-1.641-3.024-.11-6.057-.104-9.081 0-2.512.087-4.269 1.775-4.719 4.256-.08.438-.127.882-.19 1.323v7.275c.035.235.086.47.102.707.1 1.51.72 2.802 1.714 3.677l6.978 6.978c3.424.024 6.85-.147 10.269-.512 2.558-.273 4.58-2.294 4.852-4.852z"/>
    <path fill="#9B99AF" d="M29.486 25.468c-.273 2.558-2.294 4.579-4.852 4.852-3.42.365-6.845.535-10.269.511l-6.968-6.967c.808.707 1.861 1.137 3.083 1.183 3.023.114 6.057.11 9.08.002 2.736-.1 4.714-2.123 4.8-4.858.09-2.903.09-5.814 0-8.718-.04-1.262-.482-2.372-1.216-3.212l6.853 6.853c.027 3.452-.143 6.906-.51 10.354z"/>
    <path fill="#9B99AF" d="M18.54 12.585c-.878-.957-2.139-1.557-3.54-1.557-2.653 0-4.805 2.152-4.805 4.805 0 1.401.6 2.662 1.557 3.54l11.117 11.118c.589-.052 1.177-.108 1.765-.171 2.559-.273 4.58-2.294 4.853-4.853.063-.588.12-1.176.17-1.765L18.54 12.585zM29.941 19.065l-8.947-8.947c-.209-.274-.538-.452-.909-.452-.631 0-1.143.512-1.143 1.143 0 .371.178.7.452.909L29.78 22.106c.07-1.014.124-2.027.16-3.041z"/>
    <path fill="url(#paint0_linear)" d="M5.572 12.194c.062-.44.11-.885.189-1.323.45-2.481 2.207-4.17 4.719-4.256 3.024-.104 6.057-.11 9.081 0 2.734.098 4.713 2.122 4.799 4.857.09 2.904.09 5.815 0 8.719-.085 2.734-2.065 4.758-4.799 4.857-3.024.11-6.058.112-9.081-.002-2.734-.102-4.624-2.131-4.807-4.87-.016-.237-.067-.472-.101-.707v-7.275zm9.43 11.233c1.384 0 2.77.042 4.151-.01 2.167-.08 3.5-1.373 3.55-3.538.063-2.697.063-5.398 0-8.096-.05-2.164-1.384-3.487-3.55-3.533-2.749-.058-5.5-.058-8.25 0-2.15.045-3.486 1.341-3.544 3.482-.075 2.731-.075 5.468 0 8.199.058 2.14 1.395 3.407 3.544 3.487 1.365.05 2.733.01 4.1.01z"/>
    <path fill="#fff" d="M5.572 12.194c.062-.44.11-.885.189-1.323.45-2.481 2.207-4.17 4.719-4.256 3.024-.104 6.057-.11 9.081 0 2.734.098 4.713 2.122 4.799 4.857.09 2.904.09 5.815 0 8.719-.085 2.734-2.065 4.758-4.799 4.857-3.024.11-6.058.112-9.081-.002-2.734-.102-4.624-2.131-4.807-4.87-.016-.237-.067-.472-.101-.707v-7.275zm9.43 11.233c1.384 0 2.77.042 4.151-.01 2.167-.08 3.5-1.373 3.55-3.538.063-2.697.063-5.398 0-8.096-.05-2.164-1.384-3.487-3.55-3.533-2.749-.058-5.5-.058-8.25 0-2.15.045-3.486 1.341-3.544 3.482-.075 2.731-.075 5.468 0 8.199.058 2.14 1.395 3.407 3.544 3.487 1.365.05 2.733.01 4.1.01z"/>
    <path fill="#fff" d="M15 11.028c-2.653 0-4.804 2.152-4.804 4.805 0 2.654 2.151 4.805 4.805 4.805 2.653 0 4.805-2.15 4.805-4.805 0-2.653-2.152-4.805-4.805-4.805zm0 7.956c-1.74 0-3.15-1.41-3.15-3.15 0-1.741 1.41-3.152 3.15-3.152s3.151 1.411 3.151 3.151c0 1.74-1.41 3.151-3.15 3.151zM21.229 10.81c0 .63-.512 1.142-1.143 1.142s-1.143-.511-1.143-1.143c0-.631.512-1.143 1.143-1.143s1.143.512 1.143 1.143z"/>
    <defs>
        <linearGradient id="paint0_linear" x1="20.956" x2="8.821" y1="9.918" y2="22.053" gradientUnits="userSpaceOnUse">
            <stop stop-color="#833AB4"/>
            <stop offset=".092" stop-color="#9C3495"/>
            <stop offset=".293" stop-color="#DC2546"/>
            <stop offset=".392" stop-color="#FD1D1D"/>
            <stop offset=".559" stop-color="#FC6831"/>
            <stop offset=".689" stop-color="#FC9B40"/>
            <stop offset=".752" stop-color="#FCAF45"/>
            <stop offset=".781" stop-color="#FDB750"/>
            <stop offset=".866" stop-color="#FECB6A"/>
            <stop offset=".942" stop-color="#FFD87A"/>
            <stop offset="1" stop-color="#FFDC80"/>
        </linearGradient>
    </defs>
</svg>
