<svg xmlns="http://www.w3.org/2000/svg" width="30" height="31" fill="none" viewBox="0 0 30 31">
    <path fill="#9B99AF" d="M24.634 30.32c-6.416.685-12.852.685-19.268 0-2.559-.273-4.58-2.294-4.852-4.853-.685-6.416-.685-12.851 0-19.268.273-2.558 2.293-4.579 4.852-4.852 6.416-.685 12.852-.685 19.268 0 2.559.273 4.58 2.294 4.852 4.852.685 6.417.685 12.852 0 19.268-.273 2.559-2.293 4.58-4.852 4.853z"/>
    <path fill="#9B99AF" d="M27.853 7.284c-.242-2.27-2.035-4.064-4.306-4.306-5.693-.608-11.404-.608-17.097 0-2.27.242-4.064 2.035-4.306 4.306-.608 5.693-.608 11.404 0 17.097.242 2.271 2.035 4.064 4.306 4.306 5.693.608 11.404.608 17.097 0 2.27-.242 4.064-2.035 4.306-4.306.608-5.693.608-11.404 0-17.097z"/>
    <path fill="#9B99AF" d="M.45 24.845c.02.207.042.415.064.622.273 2.558 2.294 4.58 4.853 4.852 6.416.685 12.851.685 19.268 0 2.558-.273 4.579-2.294 4.852-4.852l.064-.622H.45z"/>
    <path fill="#9B99AF" d="M29.994 14.78l-6.227-6.227c-.698.399-1.313.62-1.777.743-.26.07-.473.107-.626.128-.702-.72-1.682-1.167-2.768-1.167-2.135 0-3.867 1.732-3.867 3.867 0 .078.002.154.007.23.01.185.034.367.07.544-.89-.013-3.788-.251-6.552-2.62L6.95 8.973s-1.529 2.668.72 4.693c.098.11.206.22.325.326l.029.031c-.295-.02-1.183-.108-1.696-.47 0 0-.104 1.63 1.255 2.831l1.098 1.107c-.335.027-.704.02-.961-.092 0 0 .227.966 1.107 1.74l1.537 1.545c-.922.537-2.537 1.21-4.662 1.037l9.325 9.112c3.204-.001 6.408-.172 9.607-.514 2.559-.273 4.58-2.294 4.853-4.852.38-3.56.548-7.124.507-10.688z"/>
    <path fill="#fff" d="M24.298 10.055c-.664.347-1.663.508-1.995.554l-.008-.047c1.127-.697 1.472-2.009 1.472-2.009-.698.399-1.313.62-1.776.743-.26.07-.474.108-.626.129-.703-.72-1.683-1.167-2.768-1.167-2.136 0-3.868 1.73-3.868 3.867 0 .077.003.153.008.23.01.184.034.366.07.543-1.034-.015-4.765-.332-7.857-3.924 0 0-1.721 3.004 1.173 5.056 0 0-1.173-.036-1.795-.476 0 0-.183 2.894 3.15 3.81 0 0-1.172.293-1.758.037 0 0 .586 2.49 3.517 2.674 0 0-2.102 1.925-5.535 1.648 1.689 1.069 3.69 1.688 5.836 1.688 6.034 0 10.926-4.892 10.926-10.926 0-.075 0-.15-.002-.226l.002-.134-.001-.094c1.115-.744 1.835-1.976 1.835-1.976z"/>
</svg>
