<svg xmlns="http://www.w3.org/2000/svg" width="30" height="31" fill="none" viewBox="0 0 30 31">
    <path fill="#9B99AF" d="M30 15.834c0 8.284-6.716 15-15 15-8.284 0-15-6.716-15-15 0-8.284 6.716-15 15-15 8.284 0 15 6.716 15 15z"/>
    <path fill="#9B99AF" d="M15.658 30.817C23.637 30.473 30 23.897 30 15.833c0-.059-.002-.117-.003-.175L19.585 5.246 8.453 16.882l6.185 6.185-2.852 3.878 3.872 3.872z"/>
    <path fill="#fff" d="M19.585 5.245v3.397s-3.9-.566-3.9 1.95v2.515h3.523l-.44 3.837h-3.083v10.001h-3.9v-10l-3.333-.064v-3.774h3.27v-2.893s-.215-4.304 4.026-5.094c1.762-.329 3.837.125 3.837.125z"/>
    <path fill="#fff" d="M19.586 8.642V5.245s-2.075-.454-3.836-.125c-.276.05-.531.117-.77.196v21.629h.707v-10h3.081l.44-3.838h-3.521v-2.515c0-2.516 3.9-1.95 3.9-1.95z"/>
</svg>
