<svg xmlns="http://www.w3.org/2000/svg" width="20" height="20" fill="none" viewBox="0 0 20 20">
    <g clip-path="url(#clip0)">
        <path fill="#9B99AF" d="M15.625 7.5H15V5c0-2.757-2.242-5-5-5S5 2.243 5 5v2.5h-.625C3.342 7.5 2.5 8.34 2.5 9.375v8.75C2.5 19.159 3.342 20 4.375 20h11.25c1.033 0 1.875-.84 1.875-1.875v-8.75c0-1.034-.842-1.875-1.875-1.875zM6.667 5c0-1.838 1.495-3.333 3.333-3.333S13.333 3.162 13.333 5v2.5H6.667V5zm4.166 8.935v1.898c0 .46-.372.834-.833.834-.46 0-.833-.374-.833-.834v-1.898c-.496-.29-.834-.82-.834-1.435 0-.92.748-1.667 1.667-1.667.92 0 1.667.748 1.667 1.667 0 .614-.338 1.146-.834 1.435z"/>
    </g>
    <defs>
        <clipPath id="clip0">
            <path fill="#fff" d="M0 0H20V20H0z"/>
        </clipPath>
    </defs>
</svg>
