<svg xmlns="http://www.w3.org/2000/svg" width="20" height="20" fill="none" viewBox="0 0 20 20">
    <path fill="#9B99AF" d="M.418 3.717c2.744 2.325 7.56 6.414 8.977 7.69.19.172.393.26.605.26.211 0 .415-.087.604-.259 1.417-1.276 6.234-5.366 8.979-7.691.17-.144.197-.398.058-.575-.32-.408-.797-.642-1.308-.642H1.667c-.511 0-.988.234-1.308.642-.138.177-.112.43.059.575z"/>
    <path fill="#9B99AF" d="M19.758 4.977c-.147-.069-.321-.045-.444.06-3.044 2.58-6.93 5.888-8.152 6.99-.686.619-1.638.619-2.325-.001C7.534 10.852 3.17 7.143.686 5.036c-.124-.104-.298-.127-.444-.06-.148.07-.242.216-.242.379v10.478c0 .92.747 1.667 1.667 1.667h16.666c.92 0 1.667-.747 1.667-1.667V5.355c0-.163-.094-.31-.242-.378z"/>
</svg>
