<svg xmlns="http://www.w3.org/2000/svg" width="230" height="144" xml:space="preserve"><linearGradient id="a" gradientUnits="userSpaceOnUse" x1="152.697" y1="133.388" x2="83.404" y2="-8.915" gradientTransform="matrix(1 0 0 -1 44 99)"><stop offset="0" style="stop-color:#6bb5e4"/><stop offset=".092" style="stop-color:#62b0e1"/><stop offset=".245" style="stop-color:#48a2d9"/><stop offset=".439" style="stop-color:#1f8dcb"/><stop offset=".567" style="stop-color:#007cc1"/><stop offset="1" style="stop-color:#005aa9"/></linearGradient><path fill="url(#a)" d="M104.84 121.242c-3.097 6.976 1.166 15.956 9.535 20.027 5.713 2.785 10.898 2.261 15.219-.389 1.989-1.229 2.444-1.736 4.506-4.012l1.25-1.961L182.71 28.83c3.099-6.99-2.485-18.231-11.382-20.806-14.807-4.296-19.426 6.451-19.426 6.451-3.268 5.598-18.146 40.234-30.322 68.404a5318.126 5318.126 0 0 1-16.74 38.363z"/><linearGradient id="b" gradientUnits="userSpaceOnUse" x1="-.497" y1="106.098" x2="81.085" y2="-20.773" gradientTransform="matrix(1 0 0 -1 44 99)"><stop offset="0" style="stop-color:#6bb5e4"/><stop offset=".092" style="stop-color:#62b0e1"/><stop offset=".245" style="stop-color:#48a2d9"/><stop offset=".439" style="stop-color:#1f8dcb"/><stop offset=".567" style="stop-color:#007cc1"/><stop offset="1" style="stop-color:#005aa9"/></linearGradient><path fill="url(#b)" d="M135.335 112.563c5.073 11.51 2.259 24.321-6.28 28.603l-.854.435c-5.2 2.604-11.467 2.948-16.597-.959-3.311-2.498-6.067-7.633-8.042-12.139L77.416 69.14c-5.073-11.51-2.259-24.323 6.295-28.604l.853-.434c5.087-2.544 11.609-2.679 16.569 1.662 2.714 2.38 2.231 2.305 5.954 6.466l28.248 64.333z"/><linearGradient id="c" gradientUnits="userSpaceOnUse" x1="100.186" y1="108.096" x2="21.148" y2="-7.4" gradientTransform="matrix(1 0 0 -1 44 99)"><stop offset="0" style="stop-color:#6bb5e4"/><stop offset=".092" style="stop-color:#62b0e1"/><stop offset=".245" style="stop-color:#48a2d9"/><stop offset=".439" style="stop-color:#1f8dcb"/><stop offset=".567" style="stop-color:#007cc1"/><stop offset="1" style="stop-color:#005aa9"/></linearGradient><path fill="url(#c)" d="M105.693 68.151c5.172-11.6 2.345-24.458-6.309-28.738l-.867-.434c-5.272-2.604-11.609-2.918-16.839 1.003-3.354 2.53-6.167 7.693-8.185 12.229l-26.658 59.768c-5.172 11.6-2.345 24.457 6.309 28.737l.867.435c5.144 2.545 11.766 2.664 16.81-1.721 2.771-2.41 2.26-2.32 6.054-6.512l28.818-64.767z"/><linearGradient id="d" gradientUnits="userSpaceOnUse" x1="-20.729" y1="-5.326" x2="34.445" y2="-5.326" gradientTransform="matrix(1 0 0 -1 44 99)"><stop offset="0" style="stop-color:#6bb5e4"/><stop offset=".092" style="stop-color:#62b0e1"/><stop offset=".245" style="stop-color:#48a2d9"/><stop offset=".439" style="stop-color:#1f8dcb"/><stop offset=".567" style="stop-color:#007cc1"/><stop offset="1" style="stop-color:#005aa9"/></linearGradient><path fill="url(#d)" d="M77.359 121.393c3.211 6.961-.938 16.062-9.279 20.327-8.341 4.251-17.691 2.065-20.903-4.895l-22.821-49.56c-3.211-6.961.952-16.062 9.279-20.327 8.341-4.266 17.691-2.066 20.902 4.895l22.822 49.56z"/><linearGradient id="e" gradientUnits="userSpaceOnUse" x1="-39.889" y1="44.165" x2="30.55" y2="2.634" gradientTransform="matrix(1 0 0 -1 44 99)"><stop offset="0" style="stop-color:#2ac4f3"/><stop offset=".5" style="stop-color:#00aeee"/><stop offset="1" style="stop-color:#0095da"/></linearGradient><path fill="url(#e)" d="M25.72 90.604 18.217 73.99c-3.708-8.218-.668-17.917 6.807-21.674l3.382-1.691c7.475-3.757 16.541-.12 20.263 8.097 0 0 11.141 24.038 11.041 24.412-3.127 11.272-10.572 16.016-13.272 16.405-16.072 2.275-20.718-8.935-20.718-8.935z"/><radialGradient id="f" cx="-230.348" cy="415.805" r="1" gradientTransform="matrix(45.8787 0 0 -48.328 10580.024 20096.018)" gradientUnits="userSpaceOnUse"><stop offset="0" style="stop-color:#f075ac"/><stop offset=".5" style="stop-color:#eb008b"/><stop offset="1" style="stop-color:#ce118b"/></radialGradient><path fill="url(#f)" d="M21.357 41.958C12.362 44.488 3.112 38.859.71 29.37c-2.401-9.49 2.941-19.22 11.951-21.764 9.009-2.53 18.245 3.099 20.646 12.588s-2.941 19.234-11.95 21.764z"/><path fill="#FFF" d="M210.813 13.256c3.168 0 6.031.736 8.592 2.208a15.945 15.945 0 0 1 6.096 6.096c1.473 2.56 2.208 5.408 2.208 8.544s-.752 6.016-2.256 8.64a16.644 16.644 0 0 1-6.144 6.144c-2.593 1.504-5.457 2.256-8.593 2.256s-6-.752-8.592-2.256c-2.56-1.504-4.592-3.552-6.097-6.144-1.471-2.592-2.207-5.44-2.207-8.544s.736-5.952 2.207-8.544a16.654 16.654 0 0 1 6.145-6.144c2.592-1.504 5.473-2.256 8.641-2.256zm-.097 31.728c2.752 0 5.248-.656 7.488-1.968 2.239-1.312 4-3.104 5.28-5.376 1.312-2.272 1.968-4.784 1.968-7.536s-.64-5.248-1.92-7.488c-1.248-2.24-2.992-4-5.232-5.28-2.208-1.28-4.704-1.92-7.487-1.92-2.752 0-5.265.656-7.537 1.968a14.193 14.193 0 0 0-5.279 5.376c-1.28 2.24-1.92 4.72-1.92 7.44 0 2.72.64 5.216 1.92 7.488a14.295 14.295 0 0 0 5.279 5.328c2.24 1.312 4.72 1.968 7.44 1.968zm8.688-17.856c0 1.44-.353 2.672-1.057 3.696-.703 1.024-1.695 1.76-2.976 2.208l4.368 6.768h-3.313l-3.984-6.144h-5.231V39.8h-3.264V20.6h7.68c2.399 0 4.288.592 5.664 1.776 1.409 1.184 2.113 2.768 2.113 4.752zm-8.015 3.84c1.535 0 2.719-.336 3.551-1.008.865-.672 1.297-1.616 1.297-2.832s-.432-2.144-1.297-2.784c-.832-.672-2.016-1.008-3.551-1.008h-4.225v7.632h4.225z"/></svg>